<svg width="25" height="19" viewBox="0 0 25 19" fill="none" xmlns="http://www.w3.org/2000/svg">
<path d="M23.75 12.5V16C23.75 16.3978 23.592 16.7794 23.3107 17.0607C23.0294 17.342 22.6478 17.5 22.25 17.5H2.75C2.35218 17.5 1.97064 17.342 1.68934 17.0607C1.40804 16.7794 1.25 16.3978 1.25 16V12.5C2.04565 12.5 2.80871 12.1839 3.37132 11.6213C3.93393 11.0587 4.25 10.2956 4.25 9.5C4.25 8.70435 3.93393 7.94129 3.37132 7.37868C2.80871 6.81607 2.04565 6.5 1.25 6.5V3C1.25 2.60218 1.40804 2.22064 1.68934 1.93934C1.97064 1.65804 2.35218 1.5 2.75 1.5H22.25C22.6478 1.5 23.0294 1.65804 23.3107 1.93934C23.592 2.22064 23.75 2.60218 23.75 3V6.5C22.9544 6.5 22.1913 6.81607 21.6287 7.37868C21.0661 7.94129 20.75 8.70435 20.75 9.5C20.75 10.2956 21.0661 11.0587 21.6287 11.6213C22.1913 12.1839 22.9544 12.5 23.75 12.5Z" stroke="#598FF9" stroke-width="1.5" stroke-linecap="round" stroke-linejoin="round"/>
<path d="M7.75 6.5C7.75 6.89782 7.90804 7.27936 8.18934 7.56066C8.47064 7.84196 8.85218 8 9.25 8C9.64782 8 10.0294 7.84196 10.3107 7.56066C10.592 7.27936 10.75 6.89782 10.75 6.5C10.75 6.10218 10.592 5.72064 10.3107 5.43934C10.0294 5.15804 9.64782 5 9.25 5C8.85218 5 8.47064 5.15804 8.18934 5.43934C7.90804 5.72064 7.75 6.10218 7.75 6.5Z" stroke="#598FF9" stroke-width="1.5" stroke-linecap="round" stroke-linejoin="round"/>
<path d="M15 12.5C15 12.8978 15.158 13.2794 15.4393 13.5607C15.7206 13.842 16.1022 14 16.5 14C16.8978 14 17.2794 13.842 17.5607 13.5607C17.842 13.2794 18 12.8978 18 12.5C18 12.1022 17.842 11.7206 17.5607 11.4393C17.2794 11.158 16.8978 11 16.5 11C16.1022 11 15.7206 11.158 15.4393 11.4393C15.158 11.7206 15 12.1022 15 12.5Z" stroke="#598FF9" stroke-width="1.5" stroke-linecap="round" stroke-linejoin="round"/>
<path d="M16.25 5.75L8.75 13.25" stroke="#598FF9" stroke-width="1.5" stroke-linecap="round" stroke-linejoin="round"/>
</svg>
