<svg width="16" height="17" viewBox="0 0 16 17" fill="none" xmlns="http://www.w3.org/2000/svg">
<path d="M7.33331 3.16663L2.66665 3.16663C2.31302 3.16663 1.97389 3.3071 1.72384 3.55715C1.47379 3.8072 1.33331 4.14634 1.33331 4.49996L1.33331 13.8333C1.33331 14.1869 1.47379 14.5261 1.72384 14.7761C1.97389 15.0262 2.31302 15.1666 2.66665 15.1666L12 15.1666C12.3536 15.1666 12.6927 15.0262 12.9428 14.7761C13.1928 14.5261 13.3333 14.1869 13.3333 13.8333V9.16663" stroke="#888888" stroke-linecap="round" stroke-linejoin="round"/>
<path d="M12.3333 2.16665C12.5985 1.90144 12.9582 1.75244 13.3333 1.75244C13.7084 1.75244 14.0681 1.90144 14.3333 2.16665C14.5985 2.43187 14.7475 2.79158 14.7475 3.16665C14.7475 3.54173 14.5985 3.90144 14.3333 4.16665L7.99998 10.5L5.33331 11.1667L5.99998 8.49999L12.3333 2.16665Z" stroke="#888888" stroke-linecap="round" stroke-linejoin="round"/>
</svg>
