<svg width="16" height="17" viewBox="0 0 16 17" fill="none" xmlns="http://www.w3.org/2000/svg">
<path d="M3.24999 7.25C1.94999 5.95 1.94999 3.9 3.24999 2.6L8.79999 8.15L10.65 10L13.5 12.85C14 13.35 14 14.1 13.5 14.6C13 15.1 12.1 15.1 11.65 14.5L9.6 11.95C9.09999 11.3 8.19999 11.1 7.39999 11.4L3.24999 7.25Z" stroke="#598FF9" stroke-width="1.5" stroke-miterlimit="10" stroke-linecap="round" stroke-linejoin="round"/>
<path d="M10.65 6.55L13.35 3.85" stroke="#598FF9" stroke-width="1.5" stroke-miterlimit="10" stroke-linecap="round" stroke-linejoin="round"/>
<path d="M9.54999 8.9C9.74999 8.85 9.89999 8.85 10.1 8.8C10.75 8.75 11.5 8.4 12.25 7.65L14.7 5.2" stroke="#598FF9" stroke-width="1.5" stroke-miterlimit="10" stroke-linecap="round" stroke-linejoin="round"/>
<path d="M6.15001 10.15L2.65001 13C2.10001 13.4 2.05001 14.2 2.55001 14.65C3.05001 15.15 3.80001 15.05 4.20001 14.55L7.05001 11" stroke="#598FF9" stroke-width="1.5" stroke-miterlimit="10" stroke-linecap="round" stroke-linejoin="round"/>
<path d="M12 2.5L9.5 4.95C8.75 5.7 8.35 6.45 8.35 7.1C8.35 7.3 8.3 7.45 8.25 7.65" stroke="#598FF9" stroke-width="1.5" stroke-miterlimit="10" stroke-linecap="round" stroke-linejoin="round"/>
</svg>
