<svg width="25" height="25" viewBox="0 0 25 25" fill="none" xmlns="http://www.w3.org/2000/svg">
<mask id="path-1-inside-1_1102_148" fill="white">
<path fill-rule="evenodd" clip-rule="evenodd" d="M5.57868 5.56891C9.37402 1.77893 15.5437 1.81923 19.3622 5.63778C23.1824 9.45797 23.2211 15.6313 19.4262 19.4262C15.6312 23.2211 9.45793 23.1824 5.63774 19.3622C3.37389 17.0984 2.43904 14.0099 2.84047 11.0812C2.89672 10.6708 3.275 10.3838 3.68537 10.44C4.09575 10.4963 4.38282 10.8745 4.32658 11.2849C3.9866 13.7652 4.77782 16.381 6.6984 18.3016C9.94288 21.5461 15.1664 21.5646 18.3655 18.3655C21.5646 15.1664 21.546 9.94292 18.3015 6.69844C15.0587 3.45561 9.83889 3.43539 6.63935 6.62957L7.38705 6.63333C7.80126 6.63541 8.13535 6.97288 8.13327 7.38709C8.13119 7.8013 7.79372 8.13539 7.37951 8.13331L4.83396 8.12052C4.42269 8.11845 4.08981 7.78556 4.08774 7.3743L4.07495 4.82874C4.07286 4.41454 4.40696 4.07707 4.82117 4.07498C5.23538 4.0729 5.57285 4.407 5.57493 4.82121L5.57868 5.56891ZM12.4999 7.74992C12.9141 7.74992 13.2499 8.08571 13.2499 8.49992V12.1893L15.5302 14.4696C15.8231 14.7625 15.8231 15.2374 15.5302 15.5302C15.2373 15.8231 14.7624 15.8231 14.4696 15.5302L11.7499 12.8106V8.49992C11.7499 8.08571 12.0857 7.74992 12.4999 7.74992Z"/>
</mask>
<path d="M5.57868 5.56891L2.57872 5.58396L2.61475 12.7683L7.6985 7.69173L5.57868 5.56891ZM19.3622 5.63778L17.2409 7.75909L17.2409 7.7591L19.3622 5.63778ZM19.4262 19.4262L21.5475 21.5475L21.5475 21.5475L19.4262 19.4262ZM5.63774 19.3622L7.75906 17.2409L7.75904 17.2409L5.63774 19.3622ZM2.84047 11.0812L5.81268 11.4886L5.81268 11.4886L2.84047 11.0812ZM3.68537 10.44L3.27796 13.4122L3.27797 13.4122L3.68537 10.44ZM4.32658 11.2849L7.29879 11.6923L7.2988 11.6922L4.32658 11.2849ZM6.6984 18.3016L4.57707 20.4229L4.57707 20.4229L6.6984 18.3016ZM18.3015 6.69844L16.1802 8.81975L16.1802 8.81977L18.3015 6.69844ZM6.63935 6.62957L4.51981 4.50647L-0.575583 9.59333L6.62426 9.62953L6.63935 6.62957ZM7.38705 6.63333L7.37196 9.63329L7.37198 9.63329L7.38705 6.63333ZM7.37951 8.13331L7.36444 11.1333H7.36444L7.37951 8.13331ZM4.83396 8.12052L4.81886 11.1205L4.81889 11.1205L4.83396 8.12052ZM4.08774 7.3743L1.08778 7.38937L1.08778 7.3894L4.08774 7.3743ZM4.07495 4.82874L7.07491 4.81367L7.07491 4.8136L4.07495 4.82874ZM4.82117 4.07498L4.8061 1.07502L4.80603 1.07502L4.82117 4.07498ZM5.57493 4.82121L8.57489 4.80616L8.57489 4.80615L5.57493 4.82121ZM13.2499 12.1893H10.2499V13.4319L11.1286 14.3106L13.2499 12.1893ZM15.5302 15.5302L13.4092 13.4085L13.4089 13.4089L15.5302 15.5302ZM14.4696 15.5302L16.5913 13.4092L16.5909 13.4088L14.4696 15.5302ZM11.7499 12.8106H8.7499V14.0533L9.62862 14.932L11.7499 12.8106ZM7.6985 7.69173C10.3016 5.0923 14.5728 5.09103 17.2409 7.75909L21.4835 3.51647C16.5146 -1.45257 8.44643 -1.53444 3.45886 3.44609L7.6985 7.69173ZM17.2409 7.7591C19.9101 10.4284 19.9077 14.7021 17.3049 17.3049L21.5475 21.5475C26.5345 16.5605 26.4547 8.48759 21.4835 3.51646L17.2409 7.7591ZM17.3049 17.3049C14.702 19.9077 10.4283 19.9101 7.75906 17.2409L3.51642 21.4835C8.48756 26.4547 16.5604 26.5345 21.5475 21.5475L17.3049 17.3049ZM7.75904 17.2409C6.18192 15.6638 5.53413 13.5208 5.81268 11.4886L-0.13174 10.6738C-0.656055 14.499 0.565857 18.533 3.51644 21.4835L7.75904 17.2409ZM5.81268 11.4886C5.64391 12.7199 4.50889 13.581 3.27796 13.4122L4.09277 7.46781C2.04111 7.18659 0.149527 8.62168 -0.131743 10.6738L5.81268 11.4886ZM3.27797 13.4122C2.04695 13.2435 1.18565 12.1087 1.35436 10.8776L7.2988 11.6922C7.57999 9.64026 6.14455 7.74904 4.09276 7.46781L3.27797 13.4122ZM1.35437 10.8775C0.891435 14.2548 1.97013 17.8159 4.57707 20.4229L8.81973 16.1803C7.58551 14.9461 7.08176 13.2756 7.29879 11.6923L1.35437 10.8775ZM4.57707 20.4229C8.97357 24.8194 16.0967 24.877 20.4868 20.4868L16.2442 16.2442C14.2361 18.2522 10.9122 18.2728 8.81973 16.1803L4.57707 20.4229ZM20.4868 20.4868C24.877 16.0966 24.8193 8.97356 20.4228 4.57711L16.1802 8.81977C18.2727 10.9123 18.2522 14.2362 16.2442 16.2442L20.4868 20.4868ZM20.4228 4.57713C16.0286 0.182874 8.91059 0.123041 4.51981 4.50647L8.75889 8.75267C10.7672 6.74774 14.0888 6.72835 16.1802 8.81975L20.4228 4.57713ZM6.62426 9.62953L7.37196 9.63329L7.40213 3.63337L6.65443 3.62961L6.62426 9.62953ZM7.37198 9.63329C6.12932 9.62705 5.12707 8.61461 5.13331 7.37203L11.1332 7.40215C11.1436 5.33116 9.4732 3.64377 7.40211 3.63337L7.37198 9.63329ZM5.13331 7.37203C5.13955 6.12936 6.15199 5.12711 7.39457 5.13335L7.36444 11.1333C9.43545 11.1437 11.1228 9.47324 11.1332 7.40215L5.13331 7.37203ZM7.39458 5.13335L4.84903 5.12056L4.81889 11.1205L7.36444 11.1333L7.39458 5.13335ZM4.84906 5.12056C6.08287 5.12677 7.08149 6.12544 7.0877 7.3592L1.08778 7.3894C1.09813 9.44568 2.76251 11.1101 4.81886 11.1205L4.84906 5.12056ZM7.0877 7.35923L7.07491 4.81367L1.07499 4.84381L1.08778 7.38937L7.0877 7.35923ZM7.07491 4.8136C7.08118 6.05636 6.07881 7.06867 4.83631 7.07494L4.80603 1.07502C2.73511 1.08547 1.06454 2.77272 1.07499 4.84388L7.07491 4.8136ZM4.83623 7.07494C3.5936 7.08118 2.58121 6.07889 2.57497 4.83627L8.57489 4.80615C8.56449 2.73511 6.87716 1.06462 4.8061 1.07502L4.83623 7.07494ZM2.57497 4.83626L2.57872 5.58396L8.57864 5.55386L8.57489 4.80616L2.57497 4.83626ZM12.4999 10.7499C11.2573 10.7499 10.2499 9.74259 10.2499 8.49992H16.2499C16.2499 6.42883 14.5709 4.74992 12.4999 4.74992V10.7499ZM10.2499 8.49992V12.1893H16.2499V8.49992H10.2499ZM11.1286 14.3106L13.4089 16.5909L17.6515 12.3483L15.3712 10.068L11.1286 14.3106ZM13.4089 16.5909C12.5304 15.7124 12.5299 14.2876 13.4092 13.4085L17.6512 17.6519C19.1163 16.1872 19.1158 13.8126 17.6515 12.3483L13.4089 16.5909ZM13.4089 13.4089C14.2873 12.5304 15.7122 12.5299 16.5913 13.4092L12.3479 17.6512C13.8126 19.1163 16.1872 19.1158 17.6515 17.6515L13.4089 13.4089ZM16.5909 13.4088L13.8712 10.6892L9.62862 14.932L12.3483 17.6516L16.5909 13.4088ZM14.7499 12.8106V8.49992H8.7499V12.8106H14.7499ZM14.7499 8.49992C14.7499 9.74259 13.7425 10.7499 12.4999 10.7499V4.74992C10.4289 4.74992 8.7499 6.42883 8.7499 8.49992H14.7499Z" fill="#888888" mask="url(#path-1-inside-1_1102_148)"/>
</svg>
