<svg width="64" height="64" viewBox="0 0 64 64" fill="none" xmlns="http://www.w3.org/2000/svg">
<path d="M48 48C56.8366 39.1634 56.8366 24.8366 48 16C39.1634 7.16344 24.8366 7.16344 16 16C7.16344 24.8366 7.16344 39.1634 16 48C24.8366 56.8366 39.1634 56.8366 48 48Z" fill="#CADBFF"/>
<path d="M57.939 50.7438H54.48C53.4935 39.6233 44.3339 30.8587 33.0462 30.492V29.4362H33.9485C34.603 29.4362 35.1336 28.9056 35.1336 28.251C35.1336 27.5965 34.603 27.0659 33.9485 27.0659H30.6753C30.0207 27.0659 29.4902 27.5965 29.4902 28.251C29.4902 28.9056 30.0207 29.4362 30.6753 29.4362H31.5776V30.492C20.2899 30.8587 11.13 39.6233 10.1438 50.7438H6.68447C5.63735 50.7438 4.78821 51.5929 4.78821 52.64C4.78821 53.6872 5.63735 54.5363 6.68447 54.5363H57.9387C58.9858 54.5363 59.8349 53.6872 59.8349 52.64C59.8353 51.5929 58.9861 50.7438 57.939 50.7438Z" fill="#80ABFF"/>
<mask id="mask0_1766_4333" style="mask-type:luminance" maskUnits="userSpaceOnUse" x="20" y="34" width="25" height="21">
<path d="M44.5119 34.6667H20.6199V54.5362H44.5119V34.6667Z" fill="white"/>
</mask>
<g mask="url(#mask0_1766_4333)">
<path d="M40.1324 47.5043C40.1249 46.6294 40.9349 36.0479 42.695 36.0479C42.695 58.9984 42.695 36.2138 42.695 63.1853C42.695 64.1209 40.9458 64.0351 41.0104 62.9846L41.6864 51.976C41.808 50.0001 40.1523 49.8127 40.1324 47.5043Z" fill="#A5C3FF"/>
<path d="M25.2528 36.4887V42.9744C25.2528 43.154 25.1531 43.2998 25.03 43.2998C24.9069 43.2998 24.8071 43.154 24.8071 42.9744V36.4887C24.8071 36.245 24.6719 36.0474 24.5047 36.0474C24.3378 36.0474 24.2023 36.245 24.2023 36.4887V42.9744C24.2023 43.154 24.1025 43.2998 23.9794 43.2998C23.8564 43.2998 23.7566 43.154 23.7566 42.9744V36.4887C23.7566 36.245 23.6214 36.0474 23.4545 36.0474C23.2876 36.0474 23.1521 36.245 23.1521 36.4887V42.9744C23.1521 43.154 23.0523 43.2998 22.9292 43.2998C22.8061 43.2998 22.7064 43.154 22.7064 42.9744V36.4887C22.7064 36.245 22.5712 36.0474 22.4039 36.0474H22.3934C22.2305 36.0474 22.0972 36.2354 22.0913 36.4729L21.9296 43.1425C21.9293 43.1534 21.929 43.1646 21.929 43.1755C21.915 44.1092 22.3868 44.9838 23.1396 45.5361C23.5415 46.0704 23.4638 48.5053 23.4386 49.2978L23.0221 62.3749C22.9988 63.1699 23.4343 63.8329 23.9791 63.8329C24.5243 63.8329 24.9594 63.1699 24.9361 62.3749L24.5196 49.2978C24.4945 48.5053 24.4168 46.0704 24.8186 45.5361C25.5714 44.9838 26.0432 44.1092 26.0292 43.1755C26.0289 43.1646 26.0289 43.1534 26.0286 43.1425L25.867 36.4729C25.8614 36.2354 25.7277 36.0474 25.5649 36.0474H25.5543C25.3883 36.0477 25.2528 36.245 25.2528 36.4887Z" fill="#A5C3FF"/>
<path d="M36.6329 42.3922C36.6329 39.4908 35.0428 36.0476 33.0813 36.0476C31.1198 36.0476 29.5297 39.4905 29.5297 42.3922C29.5297 44.437 30.3197 45.6672 31.4725 46.2152C32.0134 46.4722 32.3587 47.0979 32.3338 47.7807L31.8064 62.2213C31.7762 63.0459 32.3015 63.7837 33.0055 63.831C33.7676 63.8823 34.3901 63.1534 34.3581 62.2735L33.8288 47.7804C33.8039 47.0979 34.1492 46.4719 34.6901 46.2148C35.8432 45.6675 36.6329 44.4373 36.6329 42.3922Z" fill="#598FF9"/>
</g>
<path d="M31.2741 19.6239C31.8445 18.9559 32.1687 18.1963 32.1687 17.3894C32.1687 16.5826 31.8445 15.823 31.2741 15.155C30.7038 15.823 30.3796 16.5826 30.3796 17.3894C30.3793 18.1963 30.7038 18.9559 31.2741 19.6239Z" fill="#A5C3FF"/>
<path d="M29.0397 17.3894C29.7076 17.9597 30.4672 18.2839 31.2741 18.2839C32.081 18.2839 32.8406 17.9597 33.5085 17.3894C32.8406 16.819 32.081 16.4949 31.2741 16.4949C30.4672 16.4949 29.7076 16.819 29.0397 17.3894Z" fill="#A5C3FF"/>
<path d="M19.3956 27.8133C20.3849 26.6549 20.9475 25.3367 20.9475 23.9372C20.9475 22.5376 20.3849 21.2194 19.3956 20.061C18.4063 21.2194 17.8438 22.5376 17.8438 23.9372C17.8438 25.3367 18.4063 26.6549 19.3956 27.8133Z" fill="#A5C3FF"/>
<path d="M15.5195 23.9371C16.6779 24.9264 17.9961 25.489 19.3957 25.489C20.7952 25.489 22.1134 24.9264 23.2718 23.9371C22.1134 22.9478 20.7952 22.3853 19.3957 22.3853C17.9961 22.3853 16.6779 22.9478 15.5195 23.9371Z" fill="#A5C3FF"/>
<path d="M44.5714 26.2588C45.5607 25.1004 46.1233 23.7823 46.1233 22.3827C46.1233 20.9831 45.5607 19.665 44.5714 18.5066C43.5821 19.665 43.0195 20.9831 43.0195 22.3827C43.0195 23.7823 43.5821 25.1004 44.5714 26.2588Z" fill="#A5C3FF"/>
<path d="M40.6952 22.3829C41.8536 23.3722 43.1717 23.9348 44.5713 23.9348C45.9709 23.9348 47.289 23.3722 48.4474 22.3829C47.289 21.3936 45.9709 20.8311 44.5713 20.8311C43.1717 20.8311 41.8536 21.3936 40.6952 22.3829Z" fill="#A5C3FF"/>
</svg>
