<svg width="16" height="16" viewBox="0 0 16 16" fill="none" xmlns="http://www.w3.org/2000/svg">
<g clip-path="url(#clip0_1617_772)">
<path d="M13.3333 9.06666V7.99999C13.3333 7.41089 12.8558 6.93332 12.2667 6.93332H1.59999C1.01089 6.93332 0.533325 7.41089 0.533325 7.99999V14.4C0.533325 14.9891 1.01089 15.4667 1.59999 15.4667H12.2667C12.8558 15.4667 13.3333 14.9891 13.3333 14.4V13.3333M13.3333 9.06666H9.06666C7.88845 9.06666 6.93332 10.0218 6.93332 11.2C6.93332 12.3782 7.88845 13.3333 9.06666 13.3333H13.3333M13.3333 9.06666C14.5116 9.06666 15.4667 10.0218 15.4667 11.2C15.4667 12.3782 14.5116 13.3333 13.3333 13.3333M3.73333 6.93332V3.73333C3.73333 1.96602 5.16602 0.533325 6.93332 0.533325C8.70063 0.533325 10.1333 1.96602 10.1333 3.73333V6.93332M12.8 11.2H13.8667M10.6667 11.2H11.7333M8.53332 11.2H9.59999" stroke="#598FF9"/>
</g>
<defs>
<clipPath id="clip0_1617_772">
<rect width="16" height="16" fill="white"/>
</clipPath>
</defs>
</svg>
