<svg width="14" height="14" viewBox="0 0 14 14" fill="none" xmlns="http://www.w3.org/2000/svg">
<path d="M5.53797 2.5347L6.44119 1.63148C6.74983 1.32284 7.25022 1.32284 7.55886 1.63148L8.46208 2.5347C8.61029 2.68291 8.81131 2.76617 9.02091 2.76617H10.4435C10.88 2.76617 11.2339 3.12001 11.2339 3.55649V4.97911C11.2339 5.18872 11.3171 5.38974 11.4653 5.53795L12.3685 6.44116C12.6772 6.7498 12.6772 7.2502 12.3685 7.55884L11.4653 8.46205C11.3171 8.61027 11.2339 8.81129 11.2339 9.02089V10.4435C11.2339 10.88 10.88 11.2338 10.4435 11.2338H9.02091C8.81131 11.2338 8.61029 11.3171 8.46208 11.4653L7.55886 12.3685C7.25022 12.6772 6.74982 12.6772 6.44119 12.3685L5.53797 11.4653C5.38976 11.3171 5.18874 11.2338 4.97913 11.2338H3.55651C3.12003 11.2338 2.7662 10.88 2.7662 10.4435V9.02089C2.7662 8.81129 2.68293 8.61027 2.53472 8.46205L1.6315 7.55884C1.32287 7.2502 1.32287 6.7498 1.6315 6.44116L2.53472 5.53795C2.68293 5.38974 2.7662 5.18872 2.7662 4.97911V3.55649C2.7662 3.12001 3.12003 2.76617 3.55651 2.76617H4.97913C5.18874 2.76617 5.38976 2.68291 5.53797 2.5347Z" fill="#EC7905"/>
<path d="M5.00002 5.4H5.80002M8.20002 8.6H9.00002M9.00002 5L7.00002 7L5.00002 9M6.44119 1.63148L5.53797 2.5347C5.38976 2.68291 5.18874 2.76617 4.97913 2.76617H3.55651C3.12003 2.76617 2.7662 3.12001 2.7662 3.55649V4.97911C2.7662 5.18872 2.68293 5.38974 2.53472 5.53795L1.6315 6.44116C1.32287 6.7498 1.32287 7.2502 1.6315 7.55884L2.53472 8.46205C2.68293 8.61027 2.7662 8.81129 2.7662 9.02089V10.4435C2.7662 10.88 3.12003 11.2338 3.55651 11.2338H4.97913C5.18874 11.2338 5.38976 11.3171 5.53797 11.4653L6.44119 12.3685C6.74982 12.6772 7.25022 12.6772 7.55886 12.3685L8.46208 11.4653C8.61029 11.3171 8.81131 11.2338 9.02091 11.2338H10.4435C10.88 11.2338 11.2339 10.88 11.2339 10.4435V9.02089C11.2339 8.81129 11.3171 8.61027 11.4653 8.46205L12.3685 7.55884C12.6772 7.2502 12.6772 6.7498 12.3685 6.44116L11.4653 5.53795C11.3171 5.38974 11.2339 5.18872 11.2339 4.97911V3.55649C11.2339 3.12001 10.88 2.76617 10.4435 2.76617H9.02091C8.81131 2.76617 8.61029 2.68291 8.46208 2.5347L7.55886 1.63148C7.25022 1.32284 6.74982 1.32284 6.44119 1.63148Z" stroke="white" stroke-linejoin="round"/>
</svg>
