<svg width="16" height="17" viewBox="0 0 16 17" fill="none" xmlns="http://www.w3.org/2000/svg">
<path d="M4 7.16667H6.66667" stroke="#888888" stroke-linecap="round" stroke-linejoin="round"/>
<path d="M13.8889 7.83333H12.1539C10.9643 7.83333 10 8.72873 10 9.83333C10 10.9379 10.9643 11.8333 12.1539 11.8333H13.8889C13.9445 11.8333 13.9722 11.8333 13.9957 11.8319C14.3552 11.81 14.6415 11.5441 14.6651 11.2103C14.6667 11.1885 14.6667 11.1627 14.6667 11.1111V8.55553C14.6667 8.50399 14.6667 8.47819 14.6651 8.45639C14.6415 8.12253 14.3552 7.85666 13.9957 7.83473C13.9722 7.83333 13.9445 7.83333 13.8889 7.83333Z" stroke="#888888"/>
<path d="M13.9768 7.83333C13.925 6.58513 13.7579 5.81983 13.2191 5.28105C12.4381 4.5 11.181 4.5 8.66683 4.5H6.66683C4.15267 4.5 2.8956 4.5 2.11454 5.28105C1.3335 6.0621 1.3335 7.3192 1.3335 9.83333C1.3335 12.3475 1.3335 13.6046 2.11454 14.3856C2.8956 15.1667 4.15267 15.1667 6.66683 15.1667H8.66683C11.181 15.1667 12.4381 15.1667 13.2191 14.3856C13.7579 13.8469 13.925 13.0815 13.9768 11.8333" stroke="#888888"/>
<path d="M4 4.5L6.49033 2.84875C7.1916 2.38375 8.14173 2.38375 8.843 2.84875L11.3333 4.5" stroke="#888888" stroke-linecap="round"/>
<path d="M11.9941 9.83333H12.0001" stroke="#888888" stroke-linecap="round" stroke-linejoin="round"/>
</svg>
